<?xml version="1.0" encoding="UTF-8"?>
<svg id="Layer_2" xmlns="http://www.w3.org/2000/svg" viewBox="0 0 850.39 850.39">
  <path d="M195.48,534.17l-11.34,24.91c-1.92,4.25-3.14,7.59-4.25,10.23h-.2c-1.11-2.94-3.34-8.1-4.76-11.14l-11.44-24h-21.87l-2.03,71.49h16l.81-34.43c.1-3.54.2-9.92.1-11.75h.2c1.32,3.44,3.95,8.91,5.47,12.15l7.6,16.2h15.09l8.3-18.23c1.62-3.54,4.25-9.42,5.47-12.46h.2c0,3.85.1,9.52.2,14.08l.71,34.43h19.85l-2.23-71.49h-21.87Z"/>
  <path d="M254.52,534.17l-24.81,71.49h16.51l5.77-18.03h23.9l5.87,18.03h22.68l-25.62-71.49h-24.3ZM255.83,575.28l4.35-13.57c1.62-5.16,2.94-10.43,3.54-12.96h.2c.51,2.33,1.72,7.39,3.44,12.66l4.56,13.87h-16.1Z"/>
  <polygon points="360.84 561 335.43 561 335.43 534.17 314.57 534.17 314.57 605.66 335.43 605.66 335.43 574.37 360.84 574.37 360.84 605.66 381.7 605.66 381.7 534.17 360.84 534.17 360.84 561"/>
  <path d="M416.64,534.17l-24.81,71.49h16.51l5.77-18.03h23.9l5.87,18.03h22.68l-25.62-71.49h-24.3ZM417.96,575.28l4.35-13.57c1.62-5.16,2.94-10.43,3.54-12.96h.2c.51,2.33,1.72,7.39,3.44,12.66l4.56,13.87h-16.1Z"/>
  <path d="M542.01,596.75c-7.59,0-18.13-17.42-21.87-25.42,10.63-4.96,16.91-15.49,16.91-29.47,0-2.53,0-5.16-.51-7.7h-19.34c.4,3.04.61,6.18.61,9.32,0,11.24-5.16,19.54-17.32,19.54h-2.94v-28.86h-20.86v71.49h20.86v-31.19c1.01,0,3.14,0,4.35-.1,3.24,15.29,10.43,32.1,28.76,32.1,7.09,0,14.28-2.43,14.78-9.72l-.61-.61c-.91.4-1.82.61-2.83.61Z"/>
  <path d="M570.77,534.17l-24.81,71.49h16.51l5.77-18.03h23.9l5.87,18.03h22.68l-25.62-71.49h-24.3ZM572.08,575.28l4.35-13.57c1.62-5.16,2.94-10.43,3.54-12.96h.2c.51,2.33,1.72,7.39,3.44,12.66l4.56,13.87h-16.1Z"/>
  <path d="M708.59,534.17h-21.87l-11.34,24.91c-1.92,4.25-3.14,7.59-4.25,10.23h-.2c-1.11-2.94-3.34-8.1-4.76-11.14l-11.44-24h-21.87l-2.02,71.49h16l.81-34.43c.1-3.54.2-9.92.1-11.75h.2c1.32,3.44,3.95,8.91,5.47,12.15l7.59,16.2h15.09l8.3-18.23c1.62-3.54,4.25-9.42,5.47-12.46h.2c0,3.85.1,9.52.2,14.08l.71,34.43h19.85l-2.23-71.49Z"/>
  <path d="M199.22,635.25c0-6.81,4.61-11.61,11.08-11.61,2.85,0,5.48.9,8.05,2.72l-.4,3.09h-.12c-2.29-1.92-4.83-2.97-7.43-2.97-4.74,0-7.95,3.56-7.95,8.7s3.25,8.76,8.05,8.76c2.57,0,5.14-1.08,7.43-3h.12l.4,3.09c-2.51,1.83-5.2,2.75-8.11,2.75-6.53,0-11.11-4.73-11.11-11.54Z"/>
  <path d="M233.9,635.21c0-6.53,4.36-11.57,11.2-11.57s11.23,5.04,11.23,11.57-4.46,11.57-11.23,11.57-11.2-5.04-11.2-11.57ZM253.15,635.21c0-4.98-3.06-8.73-8.05-8.73s-8.02,3.74-8.02,8.73,3.1,8.73,8.02,8.73,8.05-3.81,8.05-8.73Z"/>
  <path d="M276.42,626.95v6.75h8.94v2.66h-8.94v9.81h-3v-21.91h12.29l.34,2.69h-9.62Z"/>
  <path d="M305.75,626.95v6.75h8.94v2.66h-8.94v9.81h-3v-21.91h12.29l.34,2.69h-9.62Z"/>
  <path d="M335.08,636.27v7.21h10.12l-.34,2.69h-12.78v-21.91h12.78l.34,2.69h-10.12v6.68h9.31v2.63h-9.31Z"/>
  <path d="M365.56,636.27v7.21h10.12l-.34,2.69h-12.78v-21.91h12.78l.34,2.69h-10.12v6.68h9.31v2.63h-9.31Z"/>
  <path d="M428.71,645.67l-.22.5h-3.09l-6.56-9.41h-3.34v9.41h-3v-21.91h6.53c4.73,0,7.37,2.1,7.37,6.37,0,2.88-1.55,4.86-4.46,5.63l6.78,9.41ZM415.5,626.89v7.27h2.94c3.59,0,4.92-1.15,4.92-3.56,0-2.6-1.45-3.71-4.92-3.71h-2.94Z"/>
  <path d="M442.7,635.21c0-6.53,4.36-11.57,11.2-11.57s11.23,5.04,11.23,11.57-4.46,11.57-11.23,11.57-11.2-5.04-11.2-11.57ZM461.95,635.21c0-4.98-3.06-8.73-8.05-8.73s-8.02,3.74-8.02,8.73,3.1,8.73,8.02,8.73,8.05-3.81,8.05-8.73Z"/>
  <path d="M490.75,624.26l9.16,21.82-.09.09h-3.22l-2.2-5.48h-10.18l-2.17,5.48h-3.22l-.09-.09,9.25-21.82h2.75ZM485.21,638.25h8.2l-2.6-6.47c-.56-1.45-1.08-2.79-1.48-4.05h-.06c-.43,1.27-.93,2.6-1.48,4.05l-2.57,6.47Z"/>
  <path d="M513.74,644.78l.43-3.03h.12c1.64,1.21,3.9,2.41,6.34,2.41,2.63,0,4.18-1.61,4.18-3.56,0-1.76-.87-3-4.77-4.64-4.52-1.86-6.07-3.81-6.07-6.72,0-3.13,2.51-5.6,6.78-5.6,2.44,0,4.39.68,6,1.64l-.4,2.94h-.12c-1.67-1.24-3.59-1.98-5.57-1.98-2.26,0-3.53,1.27-3.53,2.94s.84,2.51,4.7,4.24c4.92,2.23,6.16,4.18,6.16,7.02,0,3.5-2.85,6.34-7.4,6.34-2.88,0-5.23-1.02-6.87-2.01Z"/>
  <path d="M559.53,624.26v2.75h-7.37v19.16h-2.97v-19.16h-7.4v-2.75h17.73Z"/>
  <path d="M578.19,636.27v7.21h10.12l-.34,2.69h-12.78v-21.91h12.78l.34,2.69h-10.12v6.68h9.31v2.63h-9.31Z"/>
  <path d="M621.88,645.67l-.22.5h-3.09l-6.56-9.41h-3.34v9.41h-3v-21.91h6.53c4.73,0,7.37,2.1,7.37,6.37,0,2.88-1.55,4.86-4.46,5.63l6.78,9.41ZM608.67,626.89v7.27h2.94c3.59,0,4.92-1.15,4.92-3.56,0-2.6-1.45-3.71-4.92-3.71h-2.94Z"/>
  <path d="M637.81,624.26l3.31,5.91c.87,1.55,1.61,3,2.41,4.52h.06c.8-1.52,1.58-2.97,2.41-4.49l3.28-5.94h3.34l.06.09-7.64,12.87v8.94h-3v-8.94l-7.64-12.87.09-.09h3.31Z"/>
  <path d="M586.33,422.76v-12.28c-15.25-2.05-33.2-6.49-54.07-14.56,6.35-13.36,10.76-27.19,12.92-41.03,5.18-33.24-3.03-62.6-23.09-82.66-7.21-7.21-15.66-12.88-25.16-16.96,10.34-13.99,22.83-25.28,37.47-33.81l10.69-6.23-11.46-4.65c-44.14-17.94-103.34-.46-147.3,43.51-14.5,14.5-25.95,30.6-34.26,47.18-7.05,2.08-14.18,4.62-21.21,7.62-1.38.58-2.74,1.16-4.09,1.7-24.66,10.09-45.45,15.17-62.7,17.21v12.36c18.62-2.1,40.95-7.52,67.33-18.32,1.38-.58,2.8-1.16,4.23-1.76,3.27-1.38,6.55-2.66,9.84-3.85-2.49,6.55-4.48,13.12-5.99,19.67-2.9,1.06-5.79,2.19-8.6,3.39-26.45,11.22-48.6,16.77-66.79,18.9v12.37c19.61-2.22,43.32-8.12,71.54-20.08.47-.2.94-.36,1.4-.56-.71,5.96-1,11.86-.85,17.62-1.73.68-3.51,1.4-5.29,2.16-26.45,11.22-48.6,16.77-66.79,18.89v12.37c19.59-2.22,43.32-8.1,71.54-20.08.55-.23,1.08-.44,1.63-.65,2.72,18.44,10.4,35.07,23.3,47.99,7.21,7.21,15.66,12.88,25.16,16.96-10.34,13.98-22.83,25.28-37.46,33.81l-10.7,6.23,11.48,4.67c11.55,4.68,24.14,6.95,37.21,6.95,33.81,0,70.88-15.16,101.82-42.7,9.61,2.25,19.37,5.47,29.28,9.67,27.01,11.46,49.91,17.34,69.01,19.76v-12.24c-17.68-2.4-38.99-7.98-64.27-18.71-8.19-3.48-16.11-6.22-23.74-8.34,4.27-4.39,8.31-8.94,12.07-13.63,2.28.87,4.58,1.78,6.93,2.77,27.03,11.46,49.92,17.36,69.01,19.78v-12.37c-17.71-2.34-39.02-7.89-64.27-18.59-1.38-.59-2.75-1.12-4.12-1.67,3.13-4.5,6-9.09,8.65-13.77,23.01,9,42.85,13.86,59.74,16.01ZM369.14,419.6c-36.15-36.15-24.58-106.54,25.8-156.92,29.85-29.85,68.22-46.77,102.01-46.77,7.01,0,13.83.73,20.32,2.22-11.57,8.44-23.82,20.29-34.72,36.85-34.73,29.41-57.09,68.44-66.4,116.05-4.85,24.84-12.72,46.15-23.55,63.87-8.97-3.54-16.84-8.66-23.47-15.29ZM464.44,291.27c-3.94,10.69-7.31,22.57-9.9,35.8-6.16,31.5-18.35,58.95-36.35,82.09,3.95-10.69,7.31-22.57,9.9-35.8,6.16-31.5,18.36-58.95,36.35-82.09ZM371.22,483.41c6.06-5.7,17.94-15.43,34.93-22.82,20.87-9.07,43.05-12.15,66.28-9.27-31.72,25.07-69.59,37.03-101.21,32.09ZM487.69,437.75c-1.1,1.11-2.2,2.19-3.33,3.25-35.84-6.8-64.33.2-83.62,8.68-1.84.81-3.62,1.64-5.34,2.49,1.58-2.14,3.15-4.39,4.68-6.72,7.56-6.4,14.53-13.27,20.92-20.58,24.25-7.04,50.12-6.51,77.05,1.57-3.27,3.88-6.72,7.66-10.37,11.31ZM506.07,416.21c-25.22-8.25-49.71-10.46-73.06-6.55,4.44-6.26,8.47-12.83,12.13-19.64,22.41-1.88,45.97,2.2,70.11,12.13-2.78,4.79-5.85,9.47-9.18,14.06ZM451.33,377.48c6.72-14.88,11.8-30.9,15.14-48.07,4.85-24.84,12.74-46.15,23.56-63.87,8.95,3.54,16.84,8.66,23.46,15.29,17.25,17.25,24.25,42.88,19.69,72.19-2.02,12.91-6.17,25.83-12.19,38.34-23.77-9.94-47.15-14.59-69.65-13.88Z"/>
</svg>